<svg xmlns="http://www.w3.org/2000/svg" width="114.353" height="62.103" viewBox="0 0 114.353 62.103"><g transform="translate(-1064.433 -35.888)"><g transform="translate(1064.433 49.837)"><path d="M1092.6,90.422h8.678L1097.65,119.8c-.427,3.628-1,9.531-4.694,13.3-2.276,2.347-6.472,4.481-13.229,4.481-3.7,0-8.251-.64-11.523-4.126a14.981,14.981,0,0,1-3.77-8.606h9.1a5.8,5.8,0,0,0,6.473,5.335,8.491,8.491,0,0,0,5.975-2.063c1.92-1.849,2.489-4.624,2.774-6.686l.569-4.339a13.436,13.436,0,0,1-3.841,3.628,10.9,10.9,0,0,1-5.761,1.494c-3.77,0-7.255-.924-10.1-3.77-2.276-2.276-4.054-5.9-4.054-11.025a18.628,18.628,0,0,1,5.548-13.728,15.371,15.371,0,0,1,10.954-4.268,12.616,12.616,0,0,1,6.473,1.493A10.182,10.182,0,0,1,1092.1,94.4Zm-15.079,8.891a10.032,10.032,0,0,0-2.987,7.4,7.876,7.876,0,0,0,2.276,5.69,7.423,7.423,0,0,0,5.406,2.134,9.372,9.372,0,0,0,6.615-2.276,10.722,10.722,0,0,0,2.987-7.468,7.611,7.611,0,0,0-2.347-5.69,8.626,8.626,0,0,0-5.761-1.992A8.806,8.806,0,0,0,1077.521,99.313Z" transform="translate(-1064.433 -89.426)" fill="#fff"/><path d="M1231.615,93.247l5.974,17.355,10.243-17.355h9.958l-19.489,30.8h-4.125l-11.949-30.8Z" transform="translate(-1181.114 -92.251)" fill="#fff"/><path d="M1389.172,90.422h8.678l-3.77,30.8H1385.4l.5-3.983a14,14,0,0,1-3.912,3.485,10.9,10.9,0,0,1-5.761,1.494,13.584,13.584,0,0,1-10.1-3.912A14.723,14.723,0,0,1,1362,107.421c0-5.548,1.85-10.1,4.766-13.159a16.5,16.5,0,0,1,12.163-4.837,12.359,12.359,0,0,1,6.117,1.493,9.041,9.041,0,0,1,3.628,3.485Zm-15.079,8.891a9.863,9.863,0,0,0-3.058,7.113,8.34,8.34,0,0,0,2.347,6.117,7.964,7.964,0,0,0,5.69,1.992,8.908,8.908,0,0,0,6.117-2.205,10.1,10.1,0,0,0,3.059-7.4,7.932,7.932,0,0,0-2.134-5.477,7.831,7.831,0,0,0-5.975-2.347A8.842,8.842,0,0,0,1374.093,99.313Z" transform="translate(-1284.471 -89.426)" fill="#fff"/></g><g transform="translate(1068.19 35.888)"><path d="M1082.981,42.226h3.881v.082a5.083,5.083,0,0,1-1.208,3.295,3.591,3.591,0,0,1-2.79,1.067,3.677,3.677,0,0,1-2.86-1.09,4.453,4.453,0,0,1-.024-5.944,4.023,4.023,0,0,1,3.072-1.137,3.939,3.939,0,0,1,2.192.586,4.322,4.322,0,0,1,1.267,1.4l-1.63.879a2.367,2.367,0,0,0-.692-.844,1.963,1.963,0,0,0-1.2-.375,2.115,2.115,0,0,0-1.618.633,2.676,2.676,0,0,0-.668,1.852,2.46,2.46,0,0,0,.656,1.794,2.056,2.056,0,0,0,1.583.61,2,2,0,0,0,1.36-.422,1.826,1.826,0,0,0,.563-.926h-1.888Z" transform="translate(-1078.854 -37.818)" fill="#fff"/><path d="M1114,48.752h1.688v.821a1.872,1.872,0,0,1,.656-.727,1.616,1.616,0,0,1,.9-.223,1.687,1.687,0,0,1,.551.082l-.094,1.583a1.6,1.6,0,0,0-.762-.188,1.1,1.1,0,0,0-.844.352,1.986,1.986,0,0,0-.41,1.407v2.122H1114Z" transform="translate(-1104.841 -45.305)" fill="#fff"/><path d="M1134.97,53.179a3.518,3.518,0,0,1-4.572,0,2.8,2.8,0,0,1,0-3.893,3.518,3.518,0,0,1,4.572,0,2.8,2.8,0,0,1,0,3.893Zm-3.236-2.931a1.446,1.446,0,0,0,0,1.97,1.3,1.3,0,0,0,.961.375,1.282,1.282,0,0,0,.938-.375,1.447,1.447,0,0,0,0-1.97,1.389,1.389,0,0,0-1.9,0Z" transform="translate(-1116.387 -45.171)" fill="#fff"/><path d="M1158.931,49.117V52a1.1,1.1,0,0,0,.293.844,1,1,0,0,0,.7.246,1.047,1.047,0,0,0,.715-.246,1.139,1.139,0,0,0,.281-.844V49.117h1.688v3.048a2.1,2.1,0,0,1-.586,1.676,3.6,3.6,0,0,1-4.209,0,2,2,0,0,1-.575-1.571V49.117Z" transform="translate(-1136.818 -45.67)" fill="#fff"/><path d="M1184.58,56.532h-1.688V48.618h1.688v.621a1.955,1.955,0,0,1,1.629-.8,2.532,2.532,0,0,1,1.853.739,3.053,3.053,0,0,1-.047,4.139,2.325,2.325,0,0,1-1.77.7,1.887,1.887,0,0,1-1.665-.774Zm.281-6.249a1.4,1.4,0,0,0-.4.961,1.355,1.355,0,0,0,.375.926,1.377,1.377,0,0,0,.962.4,1.341,1.341,0,0,0,.9-.363,1.431,1.431,0,0,0,.41-1A1.3,1.3,0,0,0,1185.8,49.9,1.3,1.3,0,0,0,1184.862,50.283Z" transform="translate(-1155.785 -45.171)" fill="#fff"/><path d="M1219.891,39.173l1.982,5.006,1.981-5.006h1.946l-3.318,7.82h-1.219l-3.318-7.82Z" transform="translate(-1181.705 -38.317)" fill="#fff"/><path d="M1251.69,36.788a.985.985,0,1,1-.985.985A.976.976,0,0,1,1251.69,36.788Zm.844,3.212v5.229h-1.688V40Z" transform="translate(-1205.93 -36.554)" fill="#fff"/><path d="M1262.637,49.117l1.325,2.8,1.325-2.8h1.853l-2.649,5.229h-1.055l-2.65-5.229Z" transform="translate(-1213.383 -45.67)" fill="#fff"/><path d="M1291.735,51.526h-3.9a1.43,1.43,0,0,0,.317.891,1.133,1.133,0,0,0,.868.328,1.386,1.386,0,0,0,.68-.152,1.023,1.023,0,0,0,.364-.434l1.594.164a2.336,2.336,0,0,1-1.008,1.313,3.1,3.1,0,0,1-1.653.387,2.708,2.708,0,0,1-2.087-.75,2.808,2.808,0,0,1-.786-2.016,2.977,2.977,0,0,1,.8-2.064,3.094,3.094,0,0,1,4.08.035,2.983,2.983,0,0,1,.739,2.122Zm-1.559-1.008a1.328,1.328,0,0,0-.34-.61,1.239,1.239,0,0,0-1.653.047,1.179,1.179,0,0,0-.293.563Z" transform="translate(-1232.117 -45.171)" fill="#fff"/><path d="M1311.724,48.718h1.688v.621a1.909,1.909,0,0,1,1.617-.762,1.845,1.845,0,0,1,2.029,2.064v3.306h-1.688V51.262a1.45,1.45,0,0,0-.281-1.043.886.886,0,0,0-.645-.234.917.917,0,0,0-.7.281,1.337,1.337,0,0,0-.328,1v2.685h-1.688Z" transform="translate(-1251.051 -45.271)" fill="#fff"/><path d="M1342.2,44.93h-1.688V44.3a1.858,1.858,0,0,1-1.653.809,2.348,2.348,0,0,1-1.794-.715,2.931,2.931,0,0,1-.82-2.1,2.8,2.8,0,0,1,.82-2.064,2.635,2.635,0,0,1,1.817-.7,1.95,1.95,0,0,1,1.63.762v-3.9h1.688Zm-3.81-3.6a1.347,1.347,0,0,0-.41,1,1.325,1.325,0,0,0,.41.961,1.3,1.3,0,0,0,.879.363,1.44,1.44,0,0,0,.961-.387,1.272,1.272,0,0,0,.387-.938,1.348,1.348,0,0,0-.375-.961,1.347,1.347,0,0,0-1.853-.035Z" transform="translate(-1269.186 -36.254)" fill="#fff"/><path d="M1365.223,36.788a.985.985,0,1,1-.985.985A.976.976,0,0,1,1365.223,36.788Zm.844,3.212v5.229h-1.688V40Z" transform="translate(-1289.882 -36.554)" fill="#fff"/><path d="M1390.23,45.516h-2.954l-.6,1.477H1384.8l3.154-7.82h1.653l3.083,7.82h-1.876Zm-.492-1.384-.961-2.626-.973,2.626Z" transform="translate(-1305.088 -38.317)" fill="#fff"/><path d="M1418.194,40.695v3.869h-1.689V40.695h-.61v-1.36h.61V38.3a2.477,2.477,0,0,1,.586-1.817,1.927,1.927,0,0,1,1.466-.6,2.651,2.651,0,0,1,.961.176v1.477a1.3,1.3,0,0,0-.645-.2.607.607,0,0,0-.492.211,1.575,1.575,0,0,0-.188.9v.879h1.336v1.36Z" transform="translate(-1328.08 -35.888)" fill="#fff"/><path d="M1432.366,48.752h1.689v.821a1.873,1.873,0,0,1,.656-.727,1.617,1.617,0,0,1,.9-.223,1.687,1.687,0,0,1,.551.082l-.094,1.583a1.6,1.6,0,0,0-.762-.188,1.1,1.1,0,0,0-.844.352,1.986,1.986,0,0,0-.41,1.407v2.122h-1.689Z" transform="translate(-1340.26 -45.305)" fill="#fff"/><path d="M1450.541,36.788a.985.985,0,1,1-.985.985A.976.976,0,0,1,1450.541,36.788Zm.844,3.212v5.229H1449.7V40Z" transform="translate(-1352.971 -36.554)" fill="#fff"/><path d="M1465.261,50.271a1.7,1.7,0,0,0-1.1-.4,1.344,1.344,0,0,0-.961.375,1.376,1.376,0,0,0-.387.985,1.354,1.354,0,0,0,.352.938,1.389,1.389,0,0,0,1.02.422,1.649,1.649,0,0,0,1.079-.41v1.524a2.611,2.611,0,0,1-1.336.317,2.81,2.81,0,0,1-2.029-.785,2.725,2.725,0,0,1-.821-1.993,2.744,2.744,0,0,1,2.861-2.8,2.98,2.98,0,0,1,1.325.293Z" transform="translate(-1361.489 -45.171)" fill="#fff"/><path d="M1484.738,48.618h1.688v5.229h-1.688v-.633a1.742,1.742,0,0,1-1.548.809,2.477,2.477,0,0,1-1.958-.8,2.766,2.766,0,0,1-.762-1.958,2.978,2.978,0,0,1,.809-2.11,2.522,2.522,0,0,1,1.818-.715,1.962,1.962,0,0,1,1.641.762Zm-2.146,1.653a1.306,1.306,0,0,0-.387.95,1.349,1.349,0,0,0,.352.938,1.387,1.387,0,0,0,1,.41,1.25,1.25,0,0,0,.879-.363,1.387,1.387,0,0,0,.024-1.946,1.414,1.414,0,0,0-.938-.363A1.331,1.331,0,0,0,1482.592,50.271Z" transform="translate(-1375.83 -45.171)" fill="#fff"/></g></g></svg>