<svg xmlns="http://www.w3.org/2000/svg" width="120.752" height="65.578" viewBox="0 0 120.752 65.578"><g transform="translate(-1064.433 -35.888)"><g transform="translate(1064.433 50.618)"><path d="M1094.176,90.477h9.163l-3.831,31.02c-.45,3.831-1.051,10.064-4.957,14.045-2.4,2.479-6.834,4.732-13.97,4.732-3.906,0-8.713-.676-12.168-4.356a15.817,15.817,0,0,1-3.981-9.088h9.614a6.124,6.124,0,0,0,6.835,5.633,8.966,8.966,0,0,0,6.309-2.178c2.028-1.953,2.629-4.882,2.929-7.06l.6-4.582a14.186,14.186,0,0,1-4.056,3.831,11.51,11.51,0,0,1-6.083,1.577c-3.981,0-7.661-.976-10.666-3.981-2.4-2.4-4.281-6.234-4.281-11.642a19.671,19.671,0,0,1,5.859-14.5,16.231,16.231,0,0,1,11.567-4.506A13.322,13.322,0,0,1,1089.895,91a10.755,10.755,0,0,1,3.755,3.68Zm-15.923,9.389a10.593,10.593,0,0,0-3.155,7.811,8.318,8.318,0,0,0,2.4,6.009,7.84,7.84,0,0,0,5.708,2.253,9.9,9.9,0,0,0,6.985-2.4,11.32,11.32,0,0,0,3.155-7.886,8.036,8.036,0,0,0-2.479-6.009,9.109,9.109,0,0,0-6.084-2.1A9.3,9.3,0,0,0,1078.253,99.866Z" transform="translate(-1064.433 -89.426)"/><path d="M1232.14,93.247l6.309,18.327,10.816-18.327h10.516l-20.58,32.522h-4.356l-12.618-32.522Z" transform="translate(-1178.813 -92.196)"/><path d="M1390.692,90.477h9.163L1395.875,123h-9.163l.526-4.206a14.787,14.787,0,0,1-4.131,3.68,11.512,11.512,0,0,1-6.084,1.577,14.345,14.345,0,0,1-10.666-4.131c-3.154-3.155-4.356-7.135-4.356-11.492,0-5.859,1.953-10.665,5.032-13.9a17.424,17.424,0,0,1,12.844-5.107A13.05,13.05,0,0,1,1386.336,91a9.546,9.546,0,0,1,3.831,3.68Zm-15.923,9.389a10.413,10.413,0,0,0-3.229,7.511,8.807,8.807,0,0,0,2.478,6.459,8.41,8.41,0,0,0,6.009,2.1,9.406,9.406,0,0,0,6.459-2.328,10.665,10.665,0,0,0,3.23-7.811,8.375,8.375,0,0,0-2.253-5.783,8.27,8.27,0,0,0-6.309-2.479A9.336,9.336,0,0,0,1374.77,99.866Z" transform="translate(-1280.132 -89.426)"/></g><g transform="translate(1068.401 35.888)"><path d="M1083.211,42.435h4.1v.087A5.367,5.367,0,0,1,1086.034,46a3.792,3.792,0,0,1-2.947,1.126,3.884,3.884,0,0,1-3.021-1.151,4.7,4.7,0,0,1-.025-6.277,4.249,4.249,0,0,1,3.244-1.2,4.159,4.159,0,0,1,2.315.619,4.56,4.56,0,0,1,1.337,1.473l-1.721.929a2.5,2.5,0,0,0-.73-.892,2.073,2.073,0,0,0-1.263-.4,2.233,2.233,0,0,0-1.709.669,2.827,2.827,0,0,0-.705,1.956,2.6,2.6,0,0,0,.693,1.894,2.172,2.172,0,0,0,1.672.644,2.115,2.115,0,0,0,1.436-.446,1.928,1.928,0,0,0,.594-.978h-1.994Z" transform="translate(-1078.854 -37.78)"/><path d="M1114,48.759h1.783v.867a1.976,1.976,0,0,1,.693-.767,1.707,1.707,0,0,1,.953-.235,1.781,1.781,0,0,1,.582.087l-.1,1.671a1.684,1.684,0,0,0-.8-.2,1.165,1.165,0,0,0-.891.371,2.1,2.1,0,0,0-.433,1.486v2.241H1114Z" transform="translate(-1104.329 -45.119)"/><path d="M1135.27,53.444a3.715,3.715,0,0,1-4.828,0,2.96,2.96,0,0,1,0-4.11,3.714,3.714,0,0,1,4.828,0,2.961,2.961,0,0,1,0,4.11Zm-3.417-3.1a1.527,1.527,0,0,0,0,2.08,1.371,1.371,0,0,0,1.015.4,1.354,1.354,0,0,0,.991-.4,1.528,1.528,0,0,0,0-2.08,1.467,1.467,0,0,0-2.005,0Z" transform="translate(-1115.647 -44.988)"/><path d="M1159.025,49.117v3.046a1.163,1.163,0,0,0,.31.891,1.05,1.05,0,0,0,.743.26,1.1,1.1,0,0,0,.755-.26,1.2,1.2,0,0,0,.3-.891V49.117h1.783v3.219a2.215,2.215,0,0,1-.619,1.77,3.8,3.8,0,0,1-4.445,0,2.114,2.114,0,0,1-.607-1.659v-3.33Z" transform="translate(-1135.676 -45.477)"/><path d="M1184.675,56.984h-1.783V48.628h1.783v.656a2.064,2.064,0,0,1,1.72-.842,2.674,2.674,0,0,1,1.956.78,3.223,3.223,0,0,1-.049,4.37,2.454,2.454,0,0,1-1.869.743,1.992,1.992,0,0,1-1.758-.817Zm.3-6.6a1.477,1.477,0,0,0-.421,1.015,1.431,1.431,0,0,0,.4.978,1.454,1.454,0,0,0,1.016.421,1.415,1.415,0,0,0,.953-.384,1.51,1.51,0,0,0,.433-1.052,1.373,1.373,0,0,0-1.386-1.387A1.372,1.372,0,0,0,1184.972,50.386Z" transform="translate(-1154.268 -44.988)"/><path d="M1220,39.173l2.093,5.286,2.092-5.286h2.055l-3.5,8.258h-1.288l-3.5-8.258Z" transform="translate(-1179.677 -38.269)"/><path d="M1251.745,36.788a1.04,1.04,0,1,1-1.04,1.04A1.031,1.031,0,0,1,1251.745,36.788Zm.892,3.392V45.7h-1.783V40.18Z" transform="translate(-1203.424 -36.54)"/><path d="M1262.74,49.117l1.4,2.959,1.4-2.959h1.956l-2.8,5.522h-1.114l-2.8-5.522Z" transform="translate(-1210.73 -45.477)"/><path d="M1292.049,51.7h-4.123a1.511,1.511,0,0,0,.334.941,1.2,1.2,0,0,0,.917.347,1.464,1.464,0,0,0,.718-.161,1.079,1.079,0,0,0,.384-.458l1.684.173a2.465,2.465,0,0,1-1.065,1.386,3.277,3.277,0,0,1-1.745.409,2.86,2.86,0,0,1-2.2-.792,2.966,2.966,0,0,1-.829-2.129,3.143,3.143,0,0,1,.842-2.179,3.267,3.267,0,0,1,4.308.037,3.149,3.149,0,0,1,.78,2.241Zm-1.647-1.065a1.4,1.4,0,0,0-.359-.644,1.309,1.309,0,0,0-1.746.05,1.246,1.246,0,0,0-.31.594Z" transform="translate(-1229.095 -44.988)"/><path d="M1311.724,48.726h1.783v.656a2.015,2.015,0,0,1,1.708-.8,1.947,1.947,0,0,1,2.142,2.179v3.491h-1.782V51.412a1.531,1.531,0,0,0-.3-1.1.936.936,0,0,0-.681-.248.968.968,0,0,0-.743.3,1.413,1.413,0,0,0-.346,1.052v2.835h-1.783Z" transform="translate(-1247.655 -45.086)"/><path d="M1342.538,45.408h-1.783V44.74a1.963,1.963,0,0,1-1.746.854,2.478,2.478,0,0,1-1.894-.755,3.094,3.094,0,0,1-.867-2.216,2.952,2.952,0,0,1,.867-2.179,2.783,2.783,0,0,1,1.919-.743,2.06,2.06,0,0,1,1.721.8V36.383h1.783Zm-4.024-3.8a1.423,1.423,0,0,0-.433,1.052,1.4,1.4,0,0,0,.433,1.015,1.369,1.369,0,0,0,.929.384,1.521,1.521,0,0,0,1.015-.409,1.343,1.343,0,0,0,.409-.99,1.423,1.423,0,0,0-.4-1.015,1.423,1.423,0,0,0-1.956-.037Z" transform="translate(-1265.432 -36.247)"/><path d="M1365.278,36.788a1.04,1.04,0,1,1-1.04,1.04A1.031,1.031,0,0,1,1365.278,36.788Zm.891,3.392V45.7h-1.783V40.18Z" transform="translate(-1285.721 -36.54)"/><path d="M1390.534,45.871h-3.119l-.631,1.56H1384.8l3.33-8.258h1.745l3.256,8.258h-1.981Zm-.52-1.461L1389,41.636l-1.028,2.773Z" transform="translate(-1300.628 -38.269)"/><path d="M1418.323,40.964v4.086h-1.783V40.964h-.644V39.528h.644V38.438a2.615,2.615,0,0,1,.619-1.919,2.034,2.034,0,0,1,1.548-.631,2.8,2.8,0,0,1,1.015.186v1.56a1.374,1.374,0,0,0-.681-.21.64.64,0,0,0-.52.223,1.663,1.663,0,0,0-.2.953v.928h1.411v1.436Z" transform="translate(-1323.166 -35.888)"/><path d="M1432.366,48.759h1.783v.867a1.979,1.979,0,0,1,.693-.767,1.706,1.706,0,0,1,.953-.235,1.783,1.783,0,0,1,.582.087l-.1,1.671a1.683,1.683,0,0,0-.8-.2,1.164,1.164,0,0,0-.891.371,2.1,2.1,0,0,0-.433,1.486v2.241h-1.783Z" transform="translate(-1335.105 -45.119)"/><path d="M1450.6,36.788a1.04,1.04,0,1,1-1.04,1.04A1.031,1.031,0,0,1,1450.6,36.788Zm.891,3.392V45.7H1449.7V40.18Z" transform="translate(-1347.566 -36.54)"/><path d="M1465.495,50.373a1.791,1.791,0,0,0-1.164-.421,1.42,1.42,0,0,0-1.015.4,1.454,1.454,0,0,0-.409,1.04,1.429,1.429,0,0,0,.372.99,1.466,1.466,0,0,0,1.077.446,1.74,1.74,0,0,0,1.139-.433V54a2.758,2.758,0,0,1-1.411.334,2.967,2.967,0,0,1-2.142-.829,2.877,2.877,0,0,1-.867-2.1,2.9,2.9,0,0,1,3.021-2.959,3.146,3.146,0,0,1,1.4.31Z" transform="translate(-1355.916 -44.988)"/><path d="M1484.976,48.628h1.783V54.15h-1.783v-.669a1.84,1.84,0,0,1-1.634.854,2.616,2.616,0,0,1-2.067-.842,2.921,2.921,0,0,1-.8-2.068,3.144,3.144,0,0,1,.854-2.229,2.663,2.663,0,0,1,1.919-.755,2.071,2.071,0,0,1,1.733.8Zm-2.266,1.746a1.38,1.38,0,0,0-.409,1,1.424,1.424,0,0,0,.372.99,1.464,1.464,0,0,0,1.052.433,1.32,1.32,0,0,0,.928-.384,1.465,1.465,0,0,0,.025-2.055,1.493,1.493,0,0,0-.99-.384A1.406,1.406,0,0,0,1482.711,50.373Z" transform="translate(-1369.974 -44.988)"/></g></g></svg>