<svg xmlns="http://www.w3.org/2000/svg" fill="white" width="20.309" height="18.463" viewBox="0 0 20.309 18.463"><g transform="translate(-736.343 -792.112)"><rect width="3.958" height="12.542" transform="translate(736.855 798.033)"/><path d="M757.252,802.648c-2.268,0-3.688,1.228-3.951,2.089v-1.968h-4.447c.057,1.045,0,12.542,0,12.542H753.3v-6.787a2.856,2.856,0,0,1,.1-1.025,2.265,2.265,0,0,1,2.143-1.537c1.544,0,2.246,1.16,2.246,2.858v6.491h4.488v-6.974C762.275,804.452,760.065,802.648,757.252,802.648Z" transform="translate(-5.623 -4.736)"/><path d="M738.761,792.112a2.21,2.21,0,0,0-2.418,2.178,2.188,2.188,0,0,0,2.362,2.174h.029a2.187,2.187,0,1,0,.027-4.352Z"/></g></svg>